<?xml version="1.0" encoding="UTF-8" standalone="no"?>
<svg
   class="ionicon"
   viewBox="0 0 512 512"
   version="1.1"
   id="svg5570"
   sodipodi:docname="code-icon.svg"
   inkscape:version="1.2 (dc2aedaf03, 2022-05-15)"
   xml:space="preserve"
   xmlns:inkscape="http://www.inkscape.org/namespaces/inkscape"
   xmlns:sodipodi="http://sodipodi.sourceforge.net/DTD/sodipodi-0.dtd"
   xmlns="http://www.w3.org/2000/svg"
   xmlns:svg="http://www.w3.org/2000/svg"
   xmlns:rdf="http://www.w3.org/1999/02/22-rdf-syntax-ns#"
   xmlns:cc="http://creativecommons.org/ns#"
   xmlns:dc="http://purl.org/dc/elements/1.1/"><defs
     id="defs5574" /><sodipodi:namedview
     id="namedview5572"
     pagecolor="#ffffff"
     bordercolor="#000000"
     borderopacity="0.25"
     inkscape:showpageshadow="2"
     inkscape:pageopacity="0.0"
     inkscape:pagecheckerboard="0"
     inkscape:deskcolor="#d1d1d1"
     showgrid="false"
     inkscape:zoom="0.4609375"
     inkscape:cx="-58.576271"
     inkscape:cy="284.20339"
     inkscape:window-width="1500"
     inkscape:window-height="931"
     inkscape:window-x="0"
     inkscape:window-y="0"
     inkscape:window-maximized="1"
     inkscape:current-layer="svg5570" /><title
     id="title5560">Globe</title><path
     d="M 230.84838,98.303243 C 126.55505,98.303243 42,182.85829 42,287.15162 42,391.44495 126.55505,476 230.84838,476 c 104.29333,0 188.84838,-84.55505 188.84838,-188.84838 0,-104.29333 -84.55505,-188.848377 -188.84838,-188.848377 z"
     fill="none"
     stroke="currentColor"
     stroke-miterlimit="10"
     stroke-width="29.0536"
     id="path5562"
     style="stroke:#1564bf;stroke-opacity:1" /><path
     d="m 230.84838,98.303243 c -52.7232,0 -102.2959,84.555047 -102.2959,188.848377 0,104.29333 49.5727,188.84838 102.2959,188.84838 52.7232,0 102.2959,-84.55505 102.2959,-188.84838 0,-104.29333 -49.5727,-188.848377 -102.2959,-188.848377 z"
     fill="none"
     stroke="currentColor"
     stroke-miterlimit="10"
     stroke-width="29.0536"
     id="path5564"
     style="fill:none;fill-opacity:1;stroke:#1564bf;stroke-opacity:1" /><path
     d="m 104.94643,161.24968 c 34.71905,24.65016 78.42656,39.34946 125.90195,39.34946 47.47539,0 91.1829,-14.6993 125.90194,-39.34946 m 0,251.80389 C 322.03128,388.40341 278.32377,373.7041 230.84838,373.7041 c -47.47539,0 -91.1829,14.69931 -125.90195,39.34947"
     fill="none"
     stroke="currentColor"
     stroke-linecap="round"
     stroke-linejoin="round"
     stroke-width="29.0536"
     id="path5566"
     style="stroke:#1564bf;stroke-opacity:1" /><path
     fill="none"
     stroke="currentColor"
     stroke-miterlimit="10"
     stroke-width="29.0536"
     d="M 230.84838,98.303243 V 476 M 419.69676,287.15162 H 42"
     id="path5568"
     style="fill:none;fill-opacity:0.6;stroke:#1564bf;stroke-opacity:1" /><path
     d="m -332.23342,93.070791 a 24.68,24.68 0 0 0 -4.08,-5.47 l -18.34,-18.09 a 21.63,21.63 0 0 0 -6.56,-4.57 20.93,20.93 0 0 0 -23.28,4.27 c -6.36,6.26 -18,17.68 -39,38.429999 -40.16,39.73 -114.73,106.32 -148.45,134.72 a 16,16 0 0 0 -1.09,23.54 l 39,39.43 a 16.13,16.13 0 0 0 23.67,-0.89 c 29.24,-34.37 96.3,-109 136,-148.23 20.39,-20.06 31.82,-31.58 38.29,-37.94 a 21.76,21.76 0 0 0 3.84,-25.199999 z m 201.01,-46 -34.31,-34 a 5.44,5.44 0 0 0 -4,-1.59 5.59,5.59 0 0 0 -4,1.59 v 0 a 11.41,11.41 0 0 1 -9.55,3.27 c -4.48,-0.49 -9.25,-1.88 -12.33,-4.86 -7,-6.8599996 1.09,-20.3599996 -5.07,-29 a 242.88,242.88 0 0 0 -23.08,-26.72 c -7.06,-7 -34.81,-33.47 -81.55,-52.53 a 123.79,123.79 0 0 0 -47,-9.240001 c -26.35,0 -46.61,11.760001 -54,18.510001 -5.88,5.32 -12,13.77 -12,13.77 a 91.29,91.29 0 0 1 10.81,-3.2 79.53,79.53 0 0 1 23.28,-1.49 c 15.56,1.29 34.31,8.59 44.37,16.49 16.21,13 23.18,30.39 24.27,52.8300004 0.8,16.69 -15.23,37.7599996 -30.44,54.9399996 a 7.85,7.85 0 0 0 0.4,10.83 l 21.24,21.23 a 8,8 0 0 0 11.14,0.1 c 13.93,-13.51 31.09,-28.47 40.82,-34.46 9.73,-5.99 17.58,-7.68 21.35,-8.09 a 35.71,35.71 0 0 1 21.3,4.62 13.65,13.65 0 0 1 3.08,2.38 c 6.46,6.56 6.07,17.28 -0.5,23.74 l -2,1.89 a 5.5,5.5 0 0 0 0,7.84 l 34.31,33.999999 a 5.5,5.5 0 0 0 4,1.58 5.65,5.65 0 0 0 4,-1.58 l 55.46,-54.849999 a 5.82,5.82 0 0 0 0,-8 z"
     fill="none"
     stroke="currentColor"
     stroke-linecap="round"
     stroke-linejoin="round"
     stroke-width="32"
     id="path9861"
     style="fill:#5d4037;fill-opacity:1;stroke:#5d4037;stroke-opacity:1"
     class="UnoptimicedTransforms"
     transform="matrix(-0.5359847,0,0,0.5359847,187.87094,77.395081)" /><metadata
     id="metadata10260"><rdf:RDF><cc:Work
         rdf:about=""><dc:title>Globe</dc:title></cc:Work></rdf:RDF></metadata></svg>
